<?xml version="1.0" standalone="no"?>
<!DOCTYPE svg PUBLIC "-//W3C//DTD SVG 20010904//EN"
 "http://www.w3.org/TR/2001/REC-SVG-20010904/DTD/svg10.dtd">
<svg version="1.0" xmlns="http://www.w3.org/2000/svg"
 width="1280.000000pt" height="1208.000000pt" viewBox="0 0 1280.000000 1208.000000"
 preserveAspectRatio="xMidYMid meet">
<metadata>
Created by potrace 1.15, written by Peter Selinger 2001-2017
</metadata>
<g transform="translate(0.000000,1208.000000) scale(0.100000,-0.100000)"
fill="#000000" stroke="none">
<path d="M6357 12067 c-10 -7 -43 -37 -75 -67 -72 -70 -461 -404 -544 -467
-34 -27 -114 -91 -177 -143 -523 -429 -873 -605 -1321 -664 -339 -45 -947 -49
-1313 -7 -77 8 -95 -3 -62 -40 17 -18 18 -36 7 -327 -26 -669 -49 -809 -168
-988 -115 -173 -304 -311 -478 -349 -39 -8 -219 -33 -401 -55 -580 -69 -694
-83 -705 -90 -6 -4 -3 -41 10 -111 71 -372 89 -617 57 -799 -47 -264 -157
-676 -278 -1035 -32 -93 -130 -289 -204 -405 -128 -201 -338 -466 -572 -721
-70 -78 -128 -144 -128 -149 0 -9 233 -222 580 -528 247 -218 301 -272 399
-397 217 -275 393 -608 466 -880 61 -227 148 -815 245 -1647 5 -40 3 -49 -15
-58 -11 -6 -20 -18 -20 -26 0 -13 4 -13 29 2 28 16 31 16 112 -19 46 -19 112
-47 147 -62 127 -52 392 -135 607 -188 243 -61 323 -88 435 -148 178 -96 286
-202 641 -629 89 -107 267 -360 497 -705 129 -192 237 -353 241 -357 4 -4 88
26 187 66 315 129 476 179 749 235 360 74 1221 191 1404 191 352 0 788 -150
1215 -418 l89 -56 60 63 c91 98 241 290 359 461 313 455 823 956 1183 1163
212 123 611 260 1088 376 280 68 322 75 350 57 36 -24 41 -6 7 25 -29 27 -30
30 -30 122 0 200 40 347 201 728 163 389 231 512 349 629 36 36 99 85 140 109
183 107 395 285 802 674 l188 179 40 -7 c53 -9 53 11 0 25 -36 10 -48 24 -158
183 -456 658 -624 959 -737 1320 -102 329 -195 867 -195 1131 0 294 113 701
324 1169 14 31 22 57 17 57 -5 0 -98 40 -206 90 -331 151 -590 299 -750 430
-201 165 -439 464 -583 732 -89 165 -214 510 -403 1109 -56 178 -103 326 -105
328 -2 2 -36 -8 -76 -22 -234 -83 -486 -110 -1013 -111 -599 0 -885 29 -1090
112 -102 41 -321 144 -389 184 -193 112 -487 323 -813 584 -105 85 -193 154
-195 153 -1 0 -11 -6 -21 -12z m176 -140 c356 -287 727 -549 914 -644 154 -79
345 -161 440 -188 182 -53 624 -81 1118 -72 441 9 670 36 854 102 24 8 45 14
46 13 1 -2 -108 -142 -242 -313 -134 -170 -250 -318 -257 -328 -32 -43 -668
-302 -965 -392 -270 -83 -440 -69 -696 55 -292 141 -925 629 -1143 882 -88
102 -156 192 -176 233 -11 21 -24 141 -44 390 -27 333 -28 385 -6 385 3 0 73
-55 157 -123z m-173 -283 c27 -328 28 -350 12 -369 -59 -70 -179 -204 -257
-284 -104 -107 -462 -428 -573 -514 -319 -244 -695 -386 -1247 -469 -123 -18
-192 -22 -385 -22 -206 0 -247 3 -329 22 -190 44 -180 36 -456 382 -133 168
-242 306 -241 307 1 1 40 -2 86 -7 47 -5 210 -14 363 -21 404 -17 829 7 1082
62 342 74 669 245 1039 544 82 66 195 156 250 199 119 93 298 244 485 409 73
65 135 116 138 114 2 -3 17 -162 33 -353z m71 -1021 l32 -563 -69 -76 c-93
-104 -249 -287 -305 -360 -56 -72 -171 -146 -434 -279 -356 -179 -613 -278
-770 -296 -154 -17 -449 11 -672 64 l-92 22 -336 425 c-186 234 -347 436 -359
449 -20 23 -20 24 -1 18 206 -62 286 -71 558 -64 599 15 1171 192 1557 482
105 79 457 392 568 505 51 52 135 142 185 198 l92 104 7 -34 c4 -18 21 -286
39 -595z m258 296 c146 -145 316 -287 573 -477 306 -227 510 -341 693 -388
217 -55 418 -18 895 168 139 55 421 173 473 199 20 11 37 17 37 15 0 -3 -139
-220 -310 -483 -288 -445 -313 -479 -347 -491 -80 -27 -473 -121 -578 -137
-139 -22 -353 -16 -505 14 -189 37 -427 115 -565 183 -159 79 -328 219 -450
371 -127 158 -112 88 -151 731 -18 308 -34 571 -34 584 0 18 15 3 62 -60 34
-46 127 -148 207 -229z m3361 -118 c242 -770 341 -1015 517 -1280 197 -297
420 -522 675 -681 114 -71 447 -242 605 -311 57 -24 103 -47 103 -50 0 -4 -10
-9 -22 -12 -20 -4 -786 -264 -977 -331 -41 -14 -82 -26 -90 -26 -38 1 -525
411 -638 537 -189 210 -380 489 -625 913 -123 212 -171 309 -211 423 -30 86
-32 101 -32 233 0 137 1 142 30 198 32 61 557 736 561 720 1 -5 48 -155 104
-333z m-6917 -457 c212 -269 217 -276 217 -322 0 -26 7 -83 15 -128 52 -295
63 -584 27 -722 -79 -303 -298 -663 -553 -907 -170 -162 -376 -266 -642 -324
-175 -38 -110 -85 -601 437 -236 251 -431 462 -433 468 -2 7 19 13 54 17 393
42 991 121 1048 138 234 70 444 266 543 508 40 98 63 290 82 681 5 113 10 256
11 318 1 61 4 112 8 112 3 -1 104 -125 224 -276z m6190 -81 c-7 -91 18 -231
63 -346 84 -218 444 -813 677 -1117 140 -182 392 -419 669 -629 48 -36 87 -69
87 -73 1 -3 -26 -15 -60 -27 -34 -11 -202 -105 -384 -216 -179 -107 -330 -195
-335 -195 -6 0 -59 20 -118 45 -117 50 -237 116 -322 178 -65 48 -445 420
-537 527 -155 180 -229 446 -240 862 -5 198 -7 217 -24 220 -14 2 40 91 253
421 149 229 273 417 274 417 2 0 0 -30 -3 -67z m-5569 -703 l345 -435 1 -51
c0 -28 -7 -122 -15 -210 -46 -487 -125 -813 -251 -1043 -123 -223 -300 -339
-624 -407 -200 -42 -153 -57 -644 210 -237 129 -443 240 -458 247 -33 14 -36
29 -8 29 41 0 177 32 276 65 124 41 255 106 352 175 299 211 630 722 698 1078
25 129 16 330 -27 612 -11 74 -23 153 -25 175 l-5 40 19 -25 c11 -14 176 -221
366 -460z m2735 153 c13 -170 31 -407 40 -528 l17 -220 -24 -30 c-64 -82 -297
-304 -306 -294 -2 2 -27 60 -57 129 -29 69 -88 195 -132 280 -44 85 -88 178
-98 205 l-18 50 -1 -65 c0 -74 48 -267 105 -426 20 -54 43 -130 51 -169 8 -38
17 -78 20 -87 7 -23 -80 -80 -231 -153 -228 -110 -455 -157 -770 -159 -176 0
-207 2 -254 19 l-55 20 -312 405 c-172 223 -311 406 -310 407 1 2 56 -8 122
-22 262 -54 513 -69 675 -40 133 23 399 130 709 285 308 155 381 206 495 347
94 118 297 352 306 352 3 1 16 -137 28 -306z m74 195 c74 -97 242 -259 335
-321 142 -95 334 -176 566 -237 163 -43 290 -61 449 -61 174 -1 266 14 570 90
125 32 226 54 225 50 -2 -4 -131 -206 -288 -448 l-285 -440 -55 -7 c-30 -4
-154 -8 -275 -8 -230 -1 -325 9 -645 68 -205 38 -340 106 -478 240 -117 113
-108 77 -142 527 -16 217 -32 432 -35 479 -3 47 -8 103 -12 125 -6 46 -7 47
70 -57z m2233 -606 c4 -330 54 -582 157 -776 36 -67 76 -115 264 -310 214
-224 311 -314 420 -388 64 -44 227 -127 311 -159 34 -13 62 -27 62 -30 0 -3
-59 -38 -130 -78 l-131 -73 -219 -38 c-172 -30 -254 -49 -374 -90 l-153 -52
-84 54 c-46 30 -118 76 -159 103 -207 132 -348 270 -410 399 -48 101 -100 261
-156 484 l-43 173 295 457 c163 251 303 463 312 470 34 26 37 14 38 -146z
m-4351 -625 l309 -402 0 -185 c-1 -207 -17 -324 -65 -477 l-30 -92 -32 5 -32
6 25 -20 c22 -18 23 -23 11 -49 -85 -187 -314 -374 -557 -455 -56 -18 -91 -23
-184 -23 l-115 0 -357 185 c-197 102 -357 188 -358 193 0 4 15 7 33 7 46 0
198 34 291 65 348 114 513 329 631 820 48 198 99 569 107 773 1 28 4 52 7 52
3 -1 145 -182 316 -403z m2125 -162 c6 -121 16 -287 20 -370 l10 -150 -113
-107 -112 -108 -7 103 c-12 177 -82 573 -119 673 l-21 55 44 36 c23 20 95 88
158 152 l115 117 7 -90 c3 -50 11 -190 18 -311z m229 190 c129 -84 211 -111
446 -149 354 -58 459 -67 681 -55 97 6 178 9 180 7 2 -2 -88 -168 -199 -368
l-202 -365 -85 -28 c-190 -62 -400 -94 -518 -77 -95 13 -210 74 -329 174 -53
44 -109 97 -124 116 l-27 35 -21 400 c-12 220 -23 426 -26 458 l-6 59 79 -80
c43 -44 111 -101 151 -127z m-5179 -385 l402 -425 -6 -170 c-5 -170 -18 -271
-56 -420 -132 -516 -446 -1025 -926 -1499 -119 -118 -132 -133 -116 -144 14
-10 -42 -12 -293 -7 -171 3 -372 5 -449 5 l-138 0 78 83 c264 280 551 652 682
884 105 186 222 525 331 958 121 477 125 587 46 1057 -14 81 -25 153 -25 160
0 16 -7 23 470 -482z m4510 62 l35 -127 0 -230 c1 -146 6 -255 14 -298 7 -37
11 -74 8 -81 -8 -19 -105 -81 -192 -122 -120 -56 -277 -63 -449 -18 -129 33
-118 24 -414 368 -152 176 -286 331 -297 345 l-19 24 24 -6 c14 -4 73 -12 131
-17 178 -16 506 23 705 85 85 26 315 137 374 179 19 14 37 25 40 25 3 1 21
-56 40 -127z m2115 -312 c38 -121 83 -227 122 -288 70 -110 248 -259 480 -402
117 -71 139 -90 110 -90 -22 0 -244 -87 -412 -162 -184 -82 -280 -134 -338
-183 -22 -19 -44 -35 -48 -35 -17 0 -208 162 -280 237 -95 100 -124 148 -150
254 -18 70 -21 104 -17 214 l4 130 188 340 c104 187 197 355 209 374 l20 33
43 -168 c23 -93 54 -207 69 -254z m3715 375 c0 -3 -21 -54 -46 -113 -153 -355
-246 -679 -275 -954 -13 -130 -6 -233 36 -530 76 -525 200 -928 387 -1258 122
-214 424 -679 571 -878 21 -30 37 -55 35 -58 -3 -2 -144 27 -314 65 -423 95
-440 100 -486 118 l-41 16 52 26 51 26 -311 320 c-432 445 -488 508 -564 636
-171 287 -463 931 -515 1135 -60 232 -19 505 116 775 40 80 163 266 196 295
13 12 190 77 433 159 226 77 464 158 530 181 117 42 145 49 145 39z m-6874
-555 c153 -179 285 -333 292 -342 11 -14 9 -37 -17 -145 -18 -70 -41 -156 -52
-190 l-21 -63 -51 58 c-96 107 -161 162 -232 196 -67 32 -224 86 -293 101 -26
5 -32 11 -26 23 57 136 85 296 91 525 5 149 8 186 18 175 6 -7 138 -159 291
-338z m5657 73 c-96 -141 -180 -321 -218 -468 -43 -163 -45 -373 -6 -517 58
-214 355 -865 521 -1141 73 -122 135 -192 577 -645 l272 -279 -48 -23 c-28
-13 -59 -20 -73 -17 -13 2 -257 83 -543 180 -286 96 -536 178 -555 181 -29 5
-87 58 -361 334 -179 180 -341 347 -361 372 -87 109 -116 204 -128 420 -5 91
-15 235 -21 321 -14 185 -8 281 27 419 42 166 184 491 233 534 9 7 158 99 331
203 267 161 373 218 412 222 4 1 -23 -43 -59 -96z m-4171 -1108 c-48 -45 -111
-79 -116 -63 -2 7 -14 63 -26 123 -12 61 -35 162 -52 225 l-31 115 7 227 c3
125 10 237 14 249 5 12 58 66 118 121 l109 98 5 -532 5 -533 -33 -30z m139
1011 c90 -84 196 -157 283 -195 56 -23 73 -26 191 -25 139 0 220 13 391 63 54
15 101 27 102 25 2 -1 -122 -224 -275 -494 l-278 -492 -100 7 c-115 8 -227 27
-277 48 -50 21 -112 77 -99 90 18 18 12 56 -9 67 -19 10 -20 22 -20 495 0 267
3 485 6 485 4 0 42 -33 85 -74z m-4188 -246 l467 -255 0 -297 c0 -174 -4 -319
-11 -350 -47 -232 -227 -501 -470 -704 -99 -83 -328 -236 -431 -289 -43 -22
-78 -42 -78 -45 0 -3 22 -19 50 -35 27 -16 48 -31 45 -33 -5 -5 -1073 28
-1100 34 -11 2 -28 10 -37 18 -16 12 -4 26 125 157 502 505 818 1050 926 1595
24 123 45 347 39 415 -3 27 -2 48 1 47 4 -2 217 -118 474 -258z m5163 -48 c1
-124 18 -212 56 -286 48 -94 163 -215 336 -350 l63 -49 -52 -46 c-222 -195
-384 -297 -561 -352 l-97 -30 -125 96 c-139 107 -182 150 -166 170 5 6 25 39
42 72 18 34 139 248 268 477 129 229 235 416 235 416 0 0 0 -53 1 -118z
m-1482 -21 c13 -113 25 -377 26 -556 1 -99 5 -204 9 -233 7 -50 6 -53 -17 -59
-27 -7 -218 2 -242 12 -12 4 -280 406 -515 768 -19 31 -19 31 0 23 48 -20 177
-47 256 -52 150 -12 280 26 414 120 28 19 53 35 56 35 4 1 9 -26 13 -58z
m3742 -67 c-118 -239 -176 -444 -177 -634 0 -63 5 -158 10 -210 6 -52 11 -138
11 -190 1 -229 32 -367 110 -482 28 -42 168 -191 364 -388 176 -176 318 -322
315 -324 -2 -2 -187 33 -411 78 l-406 82 -69 65 c-37 35 -133 120 -211 188
-153 132 -207 192 -252 280 -113 225 -131 603 -50 1063 11 64 23 124 26 132 3
8 72 52 152 97 194 108 469 262 562 315 41 24 76 42 77 40 2 -2 -21 -52 -51
-112z m-4260 -383 c145 -219 238 -370 233 -375 -5 -6 -9 -19 -9 -30 -1 -50
-17 -47 -50 8 -47 77 -265 244 -435 332 -80 42 -115 70 -115 94 0 9 9 43 20
76 18 50 44 150 75 279 l7 30 17 -24 c9 -13 125 -188 257 -390z m-917 311
c144 -92 234 -166 349 -288 l111 -117 -31 -61 c-115 -231 -316 -368 -517 -354
-62 5 -99 20 -437 177 -203 95 -373 177 -379 183 -7 7 -7 9 0 5 20 -10 171 13
244 38 216 73 433 250 526 428 16 30 34 53 40 49 5 -3 48 -30 94 -60z m-1149
-372 l125 -65 -1 -125 c0 -216 -60 -442 -185 -700 -90 -187 -177 -316 -277
-413 -125 -121 -87 -114 -645 -121 l-478 -7 -56 32 c-63 36 -62 38 22 81 61
31 283 180 356 238 184 147 355 350 439 523 87 180 92 207 97 559 l5 308 237
-122 c130 -68 292 -152 361 -188z m5729 226 c-2 -2 -37 -23 -77 -45 -66 -38
-74 -40 -93 -27 -20 13 -15 16 68 44 88 30 110 36 102 28z m-185 -95 c4 -6
-709 -350 -768 -370 -29 -10 286 232 332 256 30 14 131 52 225 84 167 56 193
60 211 30z m-5 -141 c-54 -297 -68 -636 -35 -820 47 -259 109 -360 351 -568
60 -52 139 -122 175 -155 l65 -60 -40 6 c-22 3 -242 41 -490 85 -247 44 -461
81 -475 80 -53 0 -99 32 -172 118 -153 180 -266 361 -302 483 -21 70 -21 202
0 294 18 81 81 223 110 249 16 14 826 399 830 395 1 -1 -7 -49 -17 -107z
m-3744 -171 c119 -84 182 -151 236 -251 24 -46 66 -105 92 -131 l48 -48 -38
-36 c-65 -62 -112 -77 -248 -80 -147 -4 -165 -8 -165 -32 0 -16 -12 -19 -102
-25 -131 -9 -287 -23 -408 -38 l-95 -11 -70 -70 -70 -70 35 -10 c35 -9 92 -5
200 12 30 5 144 10 252 10 228 1 213 16 131 -127 l-53 -93 26 -34 c18 -24 22
-35 13 -35 -8 0 -214 -27 -459 -60 -438 -59 -501 -66 -512 -54 -4 3 31 42 75
87 162 163 283 354 323 512 12 46 18 108 19 181 l0 110 130 -42 c385 -126 607
-195 613 -190 12 12 -16 24 -188 79 -96 30 -242 77 -325 104 l-150 48 48 7
c171 24 317 137 429 331 l51 88 36 -34 c20 -19 77 -63 126 -98z m-1243 -83
c216 -101 404 -186 416 -190 30 -10 36 -40 29 -170 -6 -122 -22 -185 -73 -292
-69 -142 -268 -378 -349 -414 l-40 -18 28 -13 c20 -9 24 -15 15 -20 -28 -16
-315 -30 -655 -32 l-352 -2 32 24 c207 155 429 553 512 921 27 118 49 319 40
362 -4 15 -4 28 -2 28 3 0 182 -83 399 -184z m2447 -96 c7 -91 14 -177 16
-191 3 -20 -3 -31 -24 -47 l-28 -21 -43 76 c-33 57 -48 98 -61 167 -12 58 -14
92 -8 95 6 2 38 22 72 45 34 23 63 42 63 42 1 -1 7 -75 13 -166z m47 149 c50
-56 219 -99 385 -99 32 0 59 -2 59 -5 0 -15 -82 -135 -113 -167 -24 -23 -37
-45 -37 -62 0 -15 -17 -56 -37 -91 -35 -62 -39 -65 -74 -65 -34 0 -38 3 -44
31 -15 68 18 146 81 187 31 20 32 24 23 52 -19 54 -66 36 -191 -72 l-57 -49
-5 43 c-3 24 -8 88 -11 143 -3 55 -8 117 -11 138 -6 42 4 47 32 16z m1598
-183 c-38 -80 -74 -231 -74 -311 0 -164 112 -383 323 -627 27 -32 47 -58 44
-58 -8 0 -208 77 -322 123 -150 62 -236 78 -447 84 l-176 6 -7 52 c-6 53 -4
92 16 276 l11 97 127 72 c215 124 373 226 451 294 41 36 78 65 82 65 4 1 -9
-32 -28 -73z m-2210 33 c43 -6 104 -8 136 -4 l59 7 6 -39 c10 -59 53 -216 71
-259 12 -29 13 -36 2 -28 -7 6 -31 25 -53 42 -22 17 -66 38 -98 47 -124 36
-177 67 -231 135 -31 39 -32 44 -22 80 8 32 14 39 30 35 12 -2 56 -9 100 -16z
m1082 -17 c6 -9 68 -60 137 -112 70 -52 127 -97 127 -100 0 -3 -22 -15 -48
-27 -61 -28 -191 -113 -216 -141 -11 -12 -23 -22 -27 -22 -21 0 -39 55 -54
167 l-17 123 37 65 c20 36 39 65 43 65 4 0 12 -8 18 -18z m-1116 -337 c125
-53 248 -111 260 -122 11 -10 -36 -33 -68 -33 -18 0 -86 19 -150 42 l-117 42
-293 4 c-220 2 -292 6 -289 15 2 8 37 12 108 13 57 0 122 4 143 8 56 11 125
48 165 90 l34 35 36 -19 c21 -10 98 -44 171 -75z m959 23 c1 -14 -7 -18 -29
-18 -36 0 -37 11 -8 59 l23 36 6 -30 c4 -16 7 -38 8 -47z m619 -135 c-6 -32
-11 -124 -11 -205 -2 -167 5 -158 -92 -133 -122 32 -220 108 -254 198 -16 42
-14 53 17 73 25 17 314 122 338 123 8 1 8 -16 2 -56z m-1803 -133 c323 -13
345 -15 345 -40 0 -10 -10 -30 -22 -43 l-23 -24 -295 8 c-162 5 -309 7 -327 4
-22 -4 -62 -33 -130 -95 -54 -50 -100 -90 -103 -89 -3 0 -15 13 -28 29 l-23
29 61 110 62 110 51 4 c108 7 179 7 432 -3z m1482 -332 c60 -41 89 -53 182
-76 61 -15 111 -30 111 -34 0 -5 -6 -8 -12 -8 -7 0 -59 -22 -115 -49 l-102
-49 -58 91 c-32 51 -79 121 -106 156 l-48 63 38 -23 c21 -12 70 -44 110 -71z
m-1643 25 c-3 -16 -22 -75 -42 -133 -32 -94 -36 -116 -36 -210 l0 -105 -74
-37 -74 -37 6 27 c4 15 14 69 23 119 l16 93 -34 69 -34 69 42 63 c64 96 83
109 154 109 l59 0 -6 -27z m-465 -44 c-17 -22 -73 -120 -123 -217 -51 -97
-118 -213 -149 -256 -31 -43 -57 -83 -57 -87 0 -5 -4 -9 -10 -9 -5 0 -10 15
-10 33 -1 46 -31 107 -72 142 -19 17 -130 91 -246 165 -116 74 -211 138 -211
143 -1 4 11 7 27 7 15 1 216 27 447 59 231 32 424 59 428 60 5 1 -6 -17 -24
-40z m-4335 -104 l140 -5 80 -62 c207 -159 527 -418 614 -497 54 -48 192 -168
307 -267 344 -296 563 -510 646 -631 43 -62 75 -161 95 -293 23 -159 15 -598
-16 -855 -11 -98 -22 -181 -24 -183 -2 -1 -217 -151 -477 -331 l-474 -329 -7
46 c-4 26 -19 148 -33 272 -79 674 -160 1180 -225 1406 -81 283 -288 649 -520
921 -38 45 -190 189 -337 320 -262 233 -483 432 -533 480 l-25 24 325 -6 c179
-3 388 -8 464 -10z m3658 -147 c137 -89 257 -173 267 -187 48 -68 53 -161 11
-229 -91 -149 -163 -345 -180 -492 l-12 -95 -56 -58 c-118 -121 -355 -341
-347 -322 34 83 28 253 -15 385 -108 338 -472 761 -917 1067 l-72 50 262 6
c144 4 343 7 442 8 99 0 218 7 265 14 47 7 89 13 94 14 5 0 121 -72 258 -161z
m3532 107 c170 -19 324 -35 342 -35 45 0 43 -12 -8 -45 -119 -79 -253 -205
-314 -295 -17 -25 -47 -83 -66 -130 -20 -47 -50 -119 -68 -160 -17 -41 -35
-79 -39 -83 -5 -5 -89 80 -187 188 -176 194 -180 199 -253 341 -40 80 -71 147
-68 150 3 3 58 30 123 60 138 63 78 62 538 9z m-6429 15 c149 -6 333 -10 410
-11 l140 0 150 -91 c196 -119 447 -283 549 -360 176 -134 360 -347 461 -533
111 -205 154 -383 162 -670 5 -198 -14 -462 -37 -505 -8 -15 -700 -561 -719
-568 -4 -1 -4 21 0 50 42 257 58 795 30 968 -20 126 -56 230 -103 302 -63 94
-351 376 -633 618 -137 118 -284 246 -325 284 -74 67 -293 245 -525 425 -66
52 -124 98 -130 103 -6 6 49 7 145 3 85 -3 277 -10 425 -15z m1598 -47 c168
-112 436 -340 558 -475 164 -183 252 -308 330 -472 70 -147 92 -242 87 -375
-6 -172 3 -159 -378 -494 -178 -157 -325 -285 -326 -284 -1 1 2 25 6 52 5 28
14 127 20 222 38 546 -108 940 -483 1300 -134 128 -341 275 -671 474 l-139 84
324 5 c178 3 386 6 463 8 l138 2 71 -47z m2208 -6 c19 -35 21 -52 16 -117 -3
-41 -14 -102 -24 -135 -16 -52 -24 -63 -60 -83 -22 -12 -157 -142 -303 -292
-145 -149 -265 -269 -267 -267 -2 2 24 51 58 108 34 57 86 154 115 214 33 68
91 160 150 240 52 72 136 187 187 257 50 70 94 125 99 122 5 -3 18 -24 29 -47z
m4289 -143 l24 -5 -29 -18 c-17 -10 -75 -44 -130 -76 -279 -162 -527 -352
-622 -476 -53 -70 -310 -556 -382 -725 -31 -72 -60 -132 -65 -134 -5 -1 -165
136 -356 305 l-349 308 22 46 c12 25 22 47 23 49 1 2 22 -18 45 -45 24 -26 69
-74 100 -106 53 -54 60 -58 96 -55 34 3 38 6 41 33 4 43 -56 139 -145 230
l-74 77 51 121 c129 307 184 376 443 561 l64 46 89 -16 c151 -26 324 -72 444
-118 63 -24 124 -47 135 -51 66 -25 -163 136 -242 171 -41 17 -76 34 -78 36
-4 3 827 -143 895 -158z m-2549 110 c33 -26 57 -50 52 -54 -14 -13 -84 -32
-91 -25 -7 7 -31 125 -25 125 1 0 30 -21 64 -46z m175 -207 c48 -67 119 -160
158 -207 40 -47 131 -156 204 -242 l132 -158 -22 -45 c-12 -25 -24 -45 -28
-45 -3 0 -141 136 -307 303 l-302 302 -21 75 c-30 110 -29 113 33 131 28 8 55
14 60 12 4 -3 46 -59 93 -126z m-447 1 c-19 -15 -37 -28 -41 -28 -7 0 15 81
34 129 11 25 11 25 26 -23 l14 -50 -33 -28z m3321 -3 l424 -85 53 -52 c29 -29
52 -56 51 -60 -2 -5 -56 -32 -120 -62 -275 -126 -488 -254 -591 -354 -60 -59
-382 -538 -508 -757 -119 -208 -181 -373 -196 -528 l-8 -78 -375 292 c-206
160 -384 297 -394 305 -19 13 -17 18 38 146 59 139 319 644 366 713 68 98 232
238 443 378 121 80 365 225 382 226 6 1 202 -37 435 -84z m-3235 -174 c24 -98
38 -186 50 -311 21 -239 20 -258 -19 -417 -29 -124 -40 -150 -93 -238 -33 -55
-75 -129 -93 -165 -18 -36 -34 -60 -36 -55 -2 6 -44 180 -94 387 l-91 377 38
35 c65 58 154 266 185 430 10 55 16 65 57 98 55 43 46 55 96 -141z m-1385 112
c0 -38 -8 -40 -92 -22 l-52 12 64 32 c71 36 80 33 80 -22z m-85 -48 c43 -9 82
-20 86 -26 3 -6 9 -47 12 -92 12 -151 87 -254 261 -357 41 -25 76 -49 76 -55
0 -14 -182 -699 -188 -705 -3 -3 -7 0 -9 7 -2 6 -27 51 -56 99 -65 111 -197
246 -282 291 -84 44 -302 131 -483 194 l-154 52 284 285 c155 156 297 293 313
303 36 23 39 23 140 4z m5740 -167 c275 -92 507 -171 515 -174 11 -4 4 -12
-24 -27 -369 -208 -566 -347 -752 -532 -67 -66 -141 -149 -165 -185 -101 -151
-352 -631 -589 -1130 -61 -129 -113 -236 -115 -238 -7 -7 -106 64 -426 305
-379 287 -354 257 -337 393 26 210 144 440 506 982 96 144 167 240 198 267
109 96 318 218 566 332 l167 76 -50 49 c-27 26 -49 52 -49 56 0 13 23 6 555
-174z m-3495 -433 c0 0 -51 -1 -113 -3 -134 -3 -262 -23 -349 -55 l-64 -23 0
215 c0 188 -10 323 -30 407 -3 12 121 -105 275 -260 155 -154 281 -281 281
-281z m4560 114 c195 -43 363 -83 373 -87 15 -6 -19 -43 -195 -208 -401 -377
-557 -508 -748 -627 -193 -120 -298 -261 -437 -582 -228 -526 -274 -675 -275
-896 -1 -59 -4 -107 -7 -105 -54 30 -868 511 -874 516 -11 10 84 213 315 675
198 396 317 616 386 715 144 204 495 477 881 683 l84 45 71 -24 c39 -14 231
-61 426 -105z m-5703 -140 c89 -365 153 -629 153 -633 0 -3 -30 13 -67 35
-143 83 -308 127 -429 115 -68 -7 -281 -69 -403 -118 -40 -16 -76 -27 -79 -24
-2 3 30 137 73 298 42 161 84 320 93 353 9 33 16 61 17 63 1 1 19 -5 41 -14
63 -26 235 -14 409 30 77 19 144 33 150 32 5 -1 24 -63 42 -137z m-1762 -18
c233 -75 497 -182 584 -238 102 -65 234 -228 292 -358 l20 -46 -138 -414 -138
-415 -13 72 c-31 168 -153 324 -355 452 -136 87 -647 327 -833 392 -43 15 -81
29 -83 30 -3 3 255 256 364 356 l51 47 -12 -132 c-16 -175 -21 -247 -18 -247
11 0 40 67 54 129 38 155 116 401 129 401 3 0 47 -13 96 -29z m3270 -278 c184
-163 333 -298 331 -300 -2 -2 -36 4 -77 13 -101 22 -293 22 -383 0 -74 -18
-170 -62 -224 -103 -42 -31 -233 -245 -350 -389 -162 -202 -185 -242 -267
-477 -21 -60 -41 -105 -46 -100 -4 4 -36 101 -70 215 l-63 206 48 139 c117
339 150 474 166 668 22 272 31 335 51 346 30 15 139 47 204 58 99 18 106 18
228 20 l117 1 335 -297z m-1138 -195 c-8 -157 -25 -260 -64 -382 l-29 -90 -43
143 -43 142 18 42 c18 40 89 173 130 244 11 18 23 33 28 33 5 0 6 -56 3 -132z
m-522 -33 c74 -19 274 -116 302 -147 12 -13 41 -89 68 -181 43 -141 47 -162
37 -194 -10 -34 -9 -39 28 -92 32 -46 52 -99 110 -286 38 -126 70 -233 70
-236 0 -4 -42 21 -94 56 -247 165 -509 275 -659 275 -128 0 -400 -88 -784
-254 -46 -19 -83 -34 -83 -32 0 1 71 215 158 475 l157 472 52 24 c55 25 262
95 353 119 73 19 211 20 285 1z m-2138 -94 c244 -96 651 -293 789 -382 102
-67 229 -196 272 -276 42 -79 66 -190 57 -262 -4 -31 -52 -172 -110 -325 -246
-646 -287 -751 -294 -759 -4 -4 -27 46 -51 110 -147 398 -350 749 -513 886
-170 144 -484 303 -850 432 -65 23 -118 45 -118 49 0 4 146 135 323 292 372
328 320 303 495 235z m4101 0 l83 -21 402 -311 c221 -171 407 -316 413 -323 7
-6 15 -28 18 -49 6 -34 5 -38 -11 -33 -69 22 -269 39 -448 39 -167 1 -216 -3
-297 -20 -163 -35 -219 -69 -424 -254 -235 -214 -511 -485 -587 -579 -64 -80
-103 -155 -131 -260 -10 -36 -22 -76 -25 -89 -6 -20 -17 2 -55 115 -26 76 -65
189 -86 249 -110 315 -150 433 -150 446 0 8 29 94 64 191 48 131 77 195 115
252 104 154 411 511 486 565 60 43 141 79 217 96 89 21 306 13 416 -14z
m-4809 -598 c282 -101 570 -238 737 -349 160 -106 300 -284 435 -555 106 -212
229 -512 229 -557 0 -9 -36 -141 -80 -292 -45 -151 -113 -387 -153 -525 l-72
-250 -7 80 c-14 165 -53 305 -125 451 -128 260 -382 494 -1093 1007 -96 70
-213 155 -259 191 -108 83 -260 173 -383 228 -54 24 -97 46 -95 50 1 4 163
133 361 287 315 246 362 280 385 274 14 -3 68 -21 120 -40z m6145 -383 c173
-129 315 -238 315 -242 1 -5 -11 -8 -25 -8 -14 0 -71 -9 -127 -21 -528 -108
-928 -294 -1168 -545 -150 -157 -504 -661 -821 -1168 -56 -89 -106 -167 -112
-173 -8 -9 -58 131 -199 565 -103 317 -187 593 -187 613 0 55 37 186 74 264
18 40 67 111 110 163 134 159 667 657 769 717 114 68 248 95 480 95 165 0 298
-11 431 -36 44 -8 81 -13 83 -11 2 2 -4 20 -12 40 -21 52 -20 53 30 15 24 -18
186 -139 359 -268z m-3300 223 c135 -33 322 -126 522 -258 76 -51 115 -83 122
-102 31 -76 292 -837 288 -840 -2 -2 -100 36 -217 85 -455 190 -797 302 -965
318 -54 5 -85 2 -139 -14 -148 -42 -402 -154 -780 -345 -126 -63 -231 -115
-231 -114 -1 1 74 200 167 442 93 242 177 462 187 489 9 27 27 55 39 63 55 36
371 166 546 224 236 78 320 87 461 52z m-3607 -443 c159 -75 245 -129 398
-245 66 -50 201 -149 300 -220 447 -320 769 -592 888 -751 158 -211 238 -443
241 -699 l1 -120 -134 -320 c-73 -176 -136 -328 -140 -339 -6 -14 -35 25 -136
179 -301 461 -516 758 -741 1025 -187 221 -292 324 -422 410 -152 101 -243
135 -562 210 -160 38 -465 137 -640 209 -69 29 -128 55 -132 59 -6 7 928 661
945 662 4 0 64 -27 134 -60z m7706 -298 c232 -137 431 -254 442 -260 24 -13
18 -15 -70 -32 -114 -22 -431 -102 -610 -155 -338 -100 -628 -221 -795 -334
-323 -217 -791 -681 -1022 -1013 -165 -237 -224 -316 -333 -447 -65 -78 -120
-141 -124 -141 -6 0 -222 676 -221 693 0 10 191 314 345 548 209 318 457 664
572 796 195 224 582 427 1018 532 153 36 345 71 363 65 7 -2 203 -116 435
-252z m-4243 -99 c182 -37 658 -210 1015 -367 l80 -35 47 -143 c306 -939 338
-1040 328 -1058 -9 -17 -29 -6 -223 123 -408 274 -786 486 -1012 569 l-90 33
-215 -1 c-183 0 -230 -3 -316 -22 -310 -67 -462 -150 -1004 -549 -113 -83
-206 -150 -207 -149 -2 2 49 182 113 402 64 219 137 473 163 563 l47 164 150
78 c358 188 815 389 924 408 61 10 89 7 200 -16z m170 -917 c208 -58 599 -272
1064 -584 209 -140 231 -152 243 -136 10 14 13 14 18 3 3 -8 48 -150 100 -316
53 -166 98 -309 101 -318 4 -8 -43 14 -102 50 -250 151 -531 273 -757 330
-282 71 -424 75 -832 21 -1002 -131 -1246 -185 -1751 -391 -75 -30 -138 -54
-140 -53 -1 2 21 59 50 128 28 69 90 217 136 329 l84 203 155 117 c180 135
476 347 571 408 175 113 420 196 655 223 104 12 340 4 405 -14z"/>
</g>
</svg>
